<svg id="Capa_1" data-name="Capa 1" xmlns="http://www.w3.org/2000/svg" width="588.48" height="145.77" viewBox="0 0 588.48 145.77"><defs><style>.cls-1{fill:#fd6602;}.cls-2{fill:#fe8000;}.cls-3{fill:#ef6202;}.cls-4{fill:#fc6602;}.cls-5{fill:#fa6d04;}.cls-6{fill:#ed5a02;}.cls-7{fill:#d95403;}.cls-8{fill:#e55904;}</style></defs><title>zenit-logo</title><path class="cls-1" d="M118,116.54v-0.12a3.94,3.94,0,0,1,1.08-2.64l56-73h-53a2.82,2.82,0,0,1-2.88-2.76,2.92,2.92,0,0,1,2.88-2.88h58.56a3,3,0,0,1,3,2.64v0.12a3.94,3.94,0,0,1-1.08,2.64l-56,73h55.08a2.82,2.82,0,0,1,2.88,2.76,2.92,2.92,0,0,1-2.88,2.88H121A3,3,0,0,1,118,116.54Z" transform="translate(-27.42 -2.23)"/><path class="cls-1" d="M240.56,116.06V38.3a3.18,3.18,0,0,1,3.12-3.12h54.24a2.88,2.88,0,1,1,0,5.76H246.79v33h45.72a2.88,2.88,0,0,1,0,5.76H246.79v33.72h51.72a2.88,2.88,0,0,1,0,5.76H243.67A3.18,3.18,0,0,1,240.56,116.06Z" transform="translate(-27.42 -2.23)"/><path class="cls-1" d="M357,37.94a3.18,3.18,0,0,1,3.12-3.12h1a3.9,3.9,0,0,1,3.12,1.8l56.64,71.88V37.7a3,3,0,1,1,6,0v79.2a2.56,2.56,0,0,1-2.52,2.64h-0.48c-1.2,0-2.16-.84-3.12-2L363,44.3v72.36a3,3,0,1,1-6,0V37.94Z" transform="translate(-27.42 -2.23)"/><path class="cls-1" d="M488.59,37.82a3.12,3.12,0,0,1,6.24,0v78.72a3.12,3.12,0,0,1-6.24,0V37.82Z" transform="translate(-27.42 -2.23)"/><path class="cls-1" d="M579.91,40.94H553a2.88,2.88,0,0,1,0-5.76h60a2.88,2.88,0,0,1,0,5.76H586.15v75.6a3.12,3.12,0,1,1-6.24,0V40.94Z" transform="translate(-27.42 -2.23)"/><path class="cls-2" d="M62.91,56.57L42,44.58q-6.55-3.74-13.14-7.41a2.19,2.19,0,0,1-1.45-2.11Q27.5,19,27.47,2.9a3.09,3.09,0,0,1,.12-0.6,1.68,1.68,0,0,1,1.58.51Q59.94,20.61,90.69,38.44c0.59,0.34,1.4.46,1.62,1.3-2.24,2.19-5.13,3.38-7.77,4.91-7,4.06-13.87,8.32-21,12.09A0.69,0.69,0,0,1,62.91,56.57Z" transform="translate(-27.42 -2.23)"/><path class="cls-3" d="M62.92,97.2l29,16.13a2,2,0,0,1,1,2.16c0,10.36,0,20.72,0,31.08,0,1.9-.57,1.61-1.8.86Q72.71,136.64,54.28,125.9L29.37,111.32a9.58,9.58,0,0,1-1.73-1.2c0.5-.79,1.4-0.93,2.16-1.33Q46.35,102.94,62.92,97.2Z" transform="translate(-27.42 -2.23)"/><path class="cls-4" d="M65.53,88.9L57.4,93.72a0.75,0.75,0,0,1-.6.18c-5.49-2.52-10.62-5.7-15.92-8.56q-5.69-3.07-11.31-6.24c-0.76-.43-1.83-0.65-1.66-1.9q14.25-8.68,28.83-16.8c1.59-.48,3,0.32,4.35.82,8.63,3.08,17.35,6,26,9.07A7.12,7.12,0,0,0,90,71a4.07,4.07,0,0,1,2.77,1.58" transform="translate(-27.42 -2.23)"/><path class="cls-5" d="M92.77,72.54c-1.08,0-1.69-1-2.66-1.3-3.3-.47-5.86-2.59-8.67-4.07-5.12-2.75-10.2-5.58-15.29-8.4-1-.58-2.27-1-2.81-2.21,4.07-2.9,8.57-5.08,12.82-7.67,5.11-3.11,10.33-6,15.51-9.07a2,2,0,0,1,.63-0.13c0.59,7.57.27,15.16,0.43,22.73C92.83,65.82,92.77,69.18,92.77,72.54Z" transform="translate(-27.42 -2.23)"/><path class="cls-6" d="M27.9,77.2c1.93,1.33,3.56,2.32,5.39,3.36C40.95,84.88,48.7,89,56.41,93.27a2.47,2.47,0,0,1,.46.43c0,1.2-1.11,1.43-1.85,1.82-8.33,4.37-16.29,9.41-24.86,13.33a0.89,0.89,0,0,0-.49.38,21,21,0,0,1-2,.86,6.34,6.34,0,0,1-.2-2.11V79.38A3.32,3.32,0,0,1,27.9,77.2Z" transform="translate(-27.42 -2.23)"/><path class="cls-7" d="M29.68,109.23c1.22-1.48,3-2,4.62-2.93,7.34-4.12,14.73-8.13,22.11-12.18a2.66,2.66,0,0,0,.47-0.43H57.4l5.53,3.45a1.09,1.09,0,0,1-1,.92Q45.79,103.66,29.68,109.23Z" transform="translate(-27.42 -2.23)"/><path class="cls-5" d="M92.56,73" transform="translate(-27.42 -2.23)"/><path class="cls-5" d="M91.84,73.4" transform="translate(-27.42 -2.23)"/><path class="cls-8" d="M56.74,60.4l6.17-3.84h0.43c8.92,4.9,20.5,11.08,29.42,16" transform="translate(-27.42 -2.23)"/></svg>