<svg id="Capa_1" data-name="Capa 1" xmlns="http://www.w3.org/2000/svg" viewBox="0 0 151.73 337.62"><defs><style>.cls-1{fill:#fe8000;}.cls-2{fill:#ef6202;}.cls-3{fill:#fc6602;}.cls-4{fill:#fa6d04;}.cls-5{fill:#ed5a02;}.cls-6{fill:#d95403;}.cls-7{fill:#e55904;}</style></defs><title>zenit</title><path class="cls-1" d="M210.1,152q-24.21-13.89-48.42-27.77-15.17-8.66-30.44-17.16c-2-1.12-3.36-2.19-3.35-4.89C128,77.35,128,52.52,128,27.69a7.17,7.17,0,0,1,.27-1.39c1.6-.63,2.59.58,3.65,1.19Q203.21,68.71,274.45,110c1.36,0.79,3.24,1.06,3.75,3-5.19,5.08-11.89,7.82-18,11.37-16.2,9.4-32.14,19.28-48.72,28A1.61,1.61,0,0,1,210.1,152Z" transform="translate(-127.89 -26.12)"/><path class="cls-2" d="M210.12,246.13q33.53,18.7,67.09,37.36c2.21,1.22,2.36,2.87,2.36,5,0,24-.08,48,0,72,0,4.4-1.31,3.73-4.18,2q-42.59-25-85.29-49.88-28.87-16.87-57.71-33.77a22.19,22.19,0,0,1-4-2.79c1.16-1.83,3.25-2.16,5-3.08Q171.73,259.44,210.12,246.13Z" transform="translate(-127.89 -26.12)"/><path class="cls-3" d="M216.17,226.9q-9.44,5.57-18.85,11.18a1.74,1.74,0,0,1-1.39.42c-12.71-5.83-24.6-13.2-36.88-19.83q-13.17-7.11-26.21-14.45c-1.76-1-4.23-1.5-3.84-4.41q33-20.1,66.79-38.91c3.68-1.12,6.86.74,10.07,1.89,20,7.13,40.19,13.94,60.25,21,2.18,0.77,4.32,1.77,6.73,1.59,2.8,0.05,4.6,1.86,6.41,3.65" transform="translate(-127.89 -26.12)"/><path class="cls-4" d="M279.27,189c-2.5-.09-3.92-2.38-6.16-3-7.65-1.08-13.58-6-20.08-9.43-11.87-6.36-23.63-12.93-35.41-19.46-2.42-1.34-5.27-2.23-6.51-5.11,9.43-6.71,19.85-11.76,29.7-17.76,11.84-7.21,23.94-14,35.94-21a4.65,4.65,0,0,1,1.45-.29c1.36,17.53.63,35.11,1,52.66C279.41,173.44,279.27,181.23,279.27,189Z" transform="translate(-127.89 -26.12)"/><path class="cls-5" d="M129,199.81c4.48,3.08,8.25,5.38,12.49,7.78,17.73,10,35.68,19.65,53.54,29.44a5.73,5.73,0,0,1,1.06,1c-0.07,2.77-2.57,3.31-4.29,4.21-19.29,10.12-37.74,21.8-57.58,30.89a2.07,2.07,0,0,0-1.13.89,48.74,48.74,0,0,1-4.69,2,14.68,14.68,0,0,1-.46-4.89q0-33.14,0-66.28C128,203.16,127.77,201.32,129,199.81Z" transform="translate(-127.89 -26.12)"/><path class="cls-6" d="M133.11,274c2.82-3.42,7-4.73,10.71-6.78,17-9.55,34.13-18.83,51.21-28.22a6.17,6.17,0,0,0,1.08-1l1.21,0,12.81,8c-0.1,1.48-1.22,1.73-2.36,2.13Q170.43,261.11,133.11,274Z" transform="translate(-127.89 -26.12)"/><path class="cls-4" d="M278.79,190" transform="translate(-127.89 -26.12)"/><path class="cls-4" d="M277.11,191" transform="translate(-127.89 -26.12)"/><path class="cls-7" d="M195.8,160.89L210.1,152h1c20.67,11.34,47.49,25.67,68.16,37" transform="translate(-127.89 -26.12)"/></svg>